# xmcd
#
# Track frame offsets: 
#        150
#        21857
#        42697
#        60507
#        79515
#        100545
#        119332
#        138090
#        156085
#        175260
#
# Disc length: 2582 seconds
#
# Revision: 4
# Processed by: cddbd v1.5.1PL2 Copyright (c) Steve Scherf et al.
# Submitted via: ExactAudioCopy v0.95b4
#
DISCID=760a140a
DTITLE=McAuley Schenker Group - Perfect Timing
DYEAR=1987
DGENRE=Hard Rock
TTITLE0=McAuley Schenker Group - Gimme Your Love
TTITLE1=Here Today--Gone Tomorrow
TTITLE2=Don't Stop Me Now
TTITLE3=No Time For Losers
TTITLE4=Follow The Night
TTITLE5=Get Out
TTITLE6=Love Is Not A Game
TTITLE7=Time
TTITLE8=I Don't Wanna Lose
TTITLE9=Rock 'Til You're Crazy
EXTD=
EXTT0=
EXTT1=
EXTT2=
EXTT3=
EXTT4=
EXTT5=
EXTT6=
EXTT7=
EXTT8=
EXTT9=
PLAYORDER=
